<?xml version="1.0" encoding="utf-8"?>
<!-- Generator: Adobe Illustrator 22.1.0, SVG Export Plug-In . SVG Version: 6.00 Build 0)  -->
<svg version="1.1" id="Слой_1" xmlns="http://www.w3.org/2000/svg" xmlns:xlink="http://www.w3.org/1999/xlink" x="0px" y="0px"
	 viewBox="0 0 1920 1080" style="enable-background:new 0 0 1920 1080;" xml:space="preserve">
<style type="text/css">
	.st0{fill:#595959;}
	.st1{fill:#595959;}
</style>
<path class="st0" d="M620.1,444.6c19.1,13.1,32.9,19.5,55.2,28.6c10.2,4.2,20.9,5.5,19.5,10.8c1.6,1.2,3.4,0.1,3.4,0.1
	s5.2-10.3-0.4-14.1c-28.6-11.3-49.8-19.3-73.2-36.5C623.6,433,614.6,440.9,620.1,444.6z"/>
<path class="st0" d="M758.4,461.4c0.3-6.4-2.6-16.2-20.7-26.4c-30.7-17.4-49.8-22-74-29.2c-4.5-2.5-2.2-8.1,0.4-11.2
	c0,0,43.4,9.2,77.7,28.9c0,0,44,23.5,21.7,57.2S660.4,498,660.4,498s-3.1-8.8,2.5-11C668.7,484.7,756.3,501.6,758.4,461.4z"/>
<path class="st0" d="M634.2,412.3c24,9.1,54.4,21.4,74,29.2c7.9-0.9,7.8-16,7.8-16s-2.3-2.3-2.8-1c-1,2.7-3.1,4.6-7.2,3.7
	c-3.5-0.7-67.9-26.8-67.9-26.8S630.5,407.5,634.2,412.3z"/>
<path class="st0" d="M703.8,446.7c0,0,1.4,14.6-6.7,15.9c-2.8-1.1-78.5-40-78.5-40c-2.8-4.4,5.6-11.2,5.6-11.2s48.1,25.6,73.1,37.9
	c2.5,1.1,3.6-3.7,3.8-3.8C702.6,445.2,703.8,446.7,703.8,446.7z"/>
<g>
	<path class="st1" d="M897.3,859.7c8.6-21.5,11.7-36.4,15.7-60.2c1.8-10.8,0.7-21.6,6.2-21.4c0.8-1.8-0.7-3.3-0.7-3.3
		s-11.2-2.8-13.6,3.5c-4.7,30.4-7.8,52.8-19.4,79.5C885.1,858.8,894.8,865.9,897.3,859.7z"/>
	<path class="st1" d="M883,721.1c-6.3,1.1-15.2,6.1-21.2,26c-10.2,33.8-10.4,53.5-12.1,78.6c-1.4,4.9-7.4,4-11,2.1
		c0,0-0.6-44.4,11-82.2c0,0,13.2-48.1,51-33.9c37.8,14.3,39.8,96.7,39.8,96.7s-7.9,4.9-11.3,0.1C925.6,803.4,922.6,714.2,883,721.1z
		"/>
	<path class="st1" d="M862.6,853.1c3.5-25.4,8.8-57.8,12.1-78.6c-2.6-7.5-17.3-4-17.3-4s-1.7,2.8-0.4,3c2.8,0.4,5.2,2,5.3,6.2
		c0.1,3.5-11.1,72.1-11.1,72.1S858.7,857.8,862.6,853.1z"/>
	<path class="st1" d="M880.7,777.6c0,0,13.9-4.6,17,3.1c-0.5,3-21.7,85.4-21.7,85.4c-3.7,3.7-12.1-3-12.1-3s14.3-52.6,20.8-79.7
		c0.5-2.7-4.4-2.7-4.5-2.9C879.6,779.1,880.7,777.6,880.7,777.6z"/>
</g>
<g>
	<path class="st1" d="M608.2,586.3c22.9,3.5,38.1,3.2,62.1,1.9c11-0.6,21.2-4.1,22.3,1.3c1.9,0.4,3.1-1.4,3.1-1.4s0.2-11.5-6.5-12.5
		c-30.7,2.2-53.2,4.2-81.8-1.1C606.3,574.2,601.6,585.3,608.2,586.3z"/>
	<path class="st1" d="M740.1,541.3c-2.5-5.9-9.4-13.5-30.1-14.8c-35.2-2.4-54.5,1.8-79.3,5.8c-5.1-0.3-5.5-6.3-4.5-10.2
		c0,0,43.1-10.5,82.6-7.7c0,0,49.9,2.1,44.4,42.1s-85.4,60.4-85.4,60.4s-6.6-6.6-2.6-11C669.4,601.3,755.6,578.4,740.1,541.3z"/>
	<path class="st1" d="M606.9,551c25.6-2.3,58.3-4.4,79.4-5.8c6.7-4.2,0.1-17.8,0.1-17.8s-3.1-1-3,0.3c0.3,2.8-0.8,5.5-4.9,6.5
		c-3.4,0.9-72.8,5.4-72.8,5.4S601.4,548.3,606.9,551z"/>
	<path class="st1" d="M684.5,551.8c0,0,7.6,12.5,0.8,17.2c-3,0.2-88.1-2-88.1-2c-4.4-2.8,0.2-12.5,0.2-12.5s54.5,2.1,82.3,2.5
		c2.7-0.1,1.6-4.9,1.8-5C682.8,551,684.5,551.8,684.5,551.8z"/>
</g>
<g>
	<path class="st1" d="M659,719.1c22.1-6.8,35.7-13.6,56.8-25.3c9.6-5.3,17.3-12.9,20.6-8.5c1.9-0.5,2.2-2.6,2.2-2.6
		s-4.8-10.5-11.3-8.5c-26.7,15.3-46.1,26.9-74.2,34.5C652.1,709,652.6,721,659,719.1z"/>
	<path class="st1" d="M758.3,621.3c-4.8-4.3-14.3-8.1-33.6-0.3c-32.7,13.2-48.3,25.2-68.9,39.7c-4.8,2-7.7-3.3-8.5-7.2
		c0,0,34.3-28.2,71-42.8c0,0,45.8-19.8,58.3,18.6s-50.7,91.5-50.7,91.5s-8.8-3.1-7.1-8.8C720.6,706,788.4,648,758.3,621.3z"/>
	<path class="st1" d="M642.5,687.9c22.1-13.1,50.6-29.2,69-39.6c4.2-6.7-7.7-16-7.7-16s-3.2,0.4-2.6,1.5c1.5,2.4,1.6,5.3-1.6,8
		c-2.7,2.3-63.2,36.4-63.2,36.4S636.4,687.8,642.5,687.9z"/>
	<path class="st1" d="M712.7,654.9c0,0,12.3,8,8.2,15.2c-2.6,1.5-80.2,36.4-80.2,36.4c-5.2-0.6-5.2-11.3-5.2-11.3s50-21.7,75.2-33.5
		c2.4-1.3-0.7-5.1-0.6-5.3C710.9,655,712.7,654.9,712.7,654.9z"/>
</g>
<g>
	<g>
		<path class="st1" d="M762.4,816.7c17-15.7,26.3-27.8,40.2-47.4c6.4-9,10-19.1,14.9-16.6c1.5-1.3,0.8-3.2,0.8-3.2
			s-8.9-7.4-13.8-2.7c-17.4,25.4-29.9,44.3-51.9,63.3C751.8,810.6,757.4,821.2,762.4,816.7z"/>
		<path class="st1" d="M809.4,685.5c-6.2-1.8-16.4-1.1-30.4,14.3c-23.8,26.1-32.5,43.7-44.9,65.7c-3.4,3.8-8.4,0.4-10.8-2.8
			c0,0,18.7-40.3,45.4-69.4c0,0,32.7-37.7,60.6-8.5c27.9,29.2-6,104.4-6,104.4s-9.3,1-10.2-4.8C812.2,778.1,848.1,696.5,809.4,685.5
			z"/>
		<path class="st1" d="M733.9,795.7c14.2-21.4,32.9-48.3,45-65.7c0.9-7.9-13.9-11.1-13.9-11.1s-2.7,1.8-1.6,2.5
			c2.4,1.5,3.8,4.1,2,7.9c-1.5,3.2-41.2,60.2-41.2,60.2S728.4,798.3,733.9,795.7z"/>
		<path class="st1" d="M782.9,735.5c0,0,14.5,1.9,14,10.1c-1.7,2.5-56.5,67.6-56.5,67.6c-4.9,1.7-9.6-7.9-9.6-7.9
			s35.6-41.3,53.2-62.8c1.6-2.2-2.8-4.3-2.8-4.5C781.3,736.4,782.9,735.5,782.9,735.5z"/>
	</g>
</g>
<g id="Слой_15">
</g>
<g id="Слой_14">
</g>
<g id="Слой_13">
</g>
<g id="Слой_12">
	<g>
		<path class="st0" d="M1038.1,839.9c-1.6-23.1-5.3-37.9-11.9-61c-3-10.6-8.7-19.8-3.7-22c0-2-2-2.7-2-2.7s-11.3,2.3-10.8,9.1
			c9,29.4,15.9,51,17,80C1026.7,844.4,1038.5,846.6,1038.1,839.9z"/>
		<path class="st0" d="M965,721.2c-5.2,3.7-11.1,12.1-7.8,32.6c5.5,34.8,13.8,52.7,23.2,76.1c0.9,5.1-5,6.8-9,6.7
			c0,0-19.8-39.7-25.8-78.8c0,0-9-49.1,31.2-52.6c40.2-3.5,77.8,69.9,77.8,69.9s-5,7.9-10.2,5C1039.1,776.9,997.8,697.9,965,721.2z"
			/>
		<path class="st0" d="M1003.9,849c-7.9-24.4-17.2-55.9-23.2-76.1c-5.6-5.6-17.3,3.9-17.3,3.9s-0.3,3.2,0.9,2.8
			c2.7-0.9,5.6-0.4,7.4,3.3c1.6,3.2,21.3,69.8,21.3,69.8S1002.5,854.9,1003.9,849z"/>
		<path class="st0" d="M987.5,773.2c0,0,10.5-10.2,16.6-4.6c0.9,2.9,17.5,86.3,17.5,86.3c-1.7,4.9-12.2,2.6-12.2,2.6
			s-10-53.6-15.8-80.8c-0.7-2.6-5.1-0.5-5.3-0.6C987.2,775,987.5,773.2,987.5,773.2z"/>
	</g>
</g>
<g id="Слой_11">
	<g>
		<path class="st0" d="M1156.3,761c-11.5-20.1-21.2-31.8-37.2-49.8c-7.3-8.2-16.4-14-12.9-18.2c-0.9-1.8-3-1.5-3-1.5
			s-9.2,7-5.8,12.9c20.8,22.6,36.5,39,50.1,64.7C1148,770,1159.6,766.8,1156.3,761z"/>
		<path class="st0" d="M1039,685.8c-3.1,5.6-4.7,15.7,7.1,32.8c20.1,29,35.3,41.5,54,58.5c3,4.2-1.5,8.3-5.2,9.9
			c0,0-35.1-27.2-57.4-59.8c0,0-29.4-40.3,5.3-61s100.4,29.2,100.4,29.2s-1.1,9.3-7,8.9C1129.9,703.8,1058.4,650.5,1039,685.8z"/>
		<path class="st0" d="M1129.5,784c-17.7-18.6-39.7-42.9-53.9-58.5c-7.5-2.6-13.9,11-13.9,11s1.1,3.1,2.1,2.2c2-2,4.8-2.8,8.1-0.2
			c2.8,2.2,49.5,53.6,49.5,53.6S1130.8,790,1129.5,784z"/>
		<path class="st0" d="M1081.8,722.8c0,0,5.1-13.7,13-11.4c2,2.2,53.3,70.2,53.3,70.2c0.6,5.2-9.9,7.6-9.9,7.6s-32.2-43.9-49.3-65.9
			c-1.8-2-4.8,1.8-5.1,1.7C1082.3,724.6,1081.8,722.8,1081.8,722.8z"/>
	</g>
</g>
<g id="Слой_10">
	<g>
		<path class="st0" d="M1228.6,638.6c-19.1-13.1-32.9-19.5-55.2-28.7c-10.2-4.2-20.9-5.5-19.5-10.8c-1.6-1.2-3.4-0.1-3.4-0.1
			s-5.2,10.3,0.4,14.1c28.6,11.3,49.8,19.3,73.2,36.6C1225,650.3,1234.1,642.4,1228.6,638.6z"/>
		<path class="st0" d="M1090.3,621.7c-0.3,6.4,2.6,16.2,20.7,26.5c30.7,17.4,49.8,22.1,74,29.2c4.5,2.5,2.2,8.1-0.4,11.2
			c0,0-43.4-9.3-77.7-29c0,0-44-23.5-21.7-57.2c22.3-33.7,103.1-17.3,103.1-17.3s3.1,8.8-2.5,11
			C1180,598.5,1092.4,581.6,1090.3,621.7z"/>
		<path class="st0" d="M1214.5,671c-24-9.1-54.4-21.4-74-29.3c-7.9,0.9-7.8,16-7.8,16s2.3,2.3,2.8,1c1-2.7,3.1-4.6,7.2-3.7
			c3.5,0.7,67.9,26.8,67.9,26.8S1218.2,675.8,1214.5,671z"/>
		<path class="st0" d="M1144.9,636.5c0,0-1.4-14.6,6.7-15.9c2.8,1.1,78.5,40.1,78.5,40.1c2.8,4.4-5.6,11.2-5.6,11.2
			s-48.1-25.6-73-38c-2.5-1.1-3.6,3.7-3.8,3.8C1146.1,637.9,1144.9,636.5,1144.9,636.5z"/>
	</g>
</g>
<g id="Слой_9">
	<g>
		<path class="st0" d="M1240.6,496.9c-22.9-3.5-38.1-3.3-62.1-1.9c-11,0.6-21.2,4.1-22.3-1.3c-1.9-0.4-3.1,1.4-3.1,1.4
			s-0.2,11.5,6.5,12.5c30.7-2.2,53.2-4.2,81.8,1.2C1242.5,509,1247.2,498,1240.6,496.9z"/>
		<path class="st0" d="M1108.7,541.8c2.5,5.9,9.3,13.5,30.1,14.9c35.2,2.4,54.5-1.7,79.3-5.8c5.1,0.3,5.5,6.3,4.5,10.2
			c0,0-43.1,10.5-82.6,7.6c0,0-49.9-2.1-44.4-42.1s85.4-60.3,85.4-60.3s6.6,6.6,2.6,11C1179.4,481.9,1093.2,504.7,1108.7,541.8z"/>
		<path class="st0" d="M1241.9,532.2c-25.6,2.2-58.3,4.3-79.4,5.7c-6.7,4.2-0.1,17.8-0.1,17.8s3.1,1,3-0.3c-0.3-2.8,0.8-5.5,4.9-6.5
			c3.4-0.8,72.8-5.3,72.8-5.3S1247.4,534.9,1241.9,532.2z"/>
		<path class="st0" d="M1164.3,531.4c0,0-7.6-12.5-0.8-17.2c3-0.2,88.1,2.1,88.1,2.1c4.4,2.8-0.2,12.5-0.2,12.5s-54.5-2.2-82.3-2.5
			c-2.7,0.1-1.6,4.9-1.8,5C1166,532.1,1164.3,531.4,1164.3,531.4z"/>
	</g>
</g>
<g id="Слой_8">
	<g>
		<path class="st0" d="M1189.9,364.1c-22.1,6.7-35.8,13.6-56.8,25.2c-9.6,5.3-17.3,12.9-20.6,8.5c-1.9,0.5-2.2,2.6-2.2,2.6
			s4.8,10.5,11.3,8.5c26.7-15.3,46.2-26.9,74.2-34.4C1196.9,374.2,1196.3,362.2,1189.9,364.1z"/>
		<path class="st0" d="M1090.5,461.8c4.8,4.3,14.3,8.1,33.6,0.3c32.7-13.1,48.3-25.2,69-39.6c4.8-2,7.7,3.3,8.5,7.2
			c0,0-34.3,28.2-71.1,42.7c0,0-45.8,19.8-58.3-18.7s50.8-91.4,50.8-91.4s8.8,3.1,7.1,8.8C1128.3,377.1,1060.5,435.1,1090.5,461.8z"
			/>
		<path class="st0" d="M1206.4,395.3c-22.1,13.1-50.7,29.2-69,39.6c-4.2,6.7,7.6,16,7.6,16s3.2-0.4,2.6-1.5c-1.5-2.4-1.6-5.3,1.6-8
			c2.7-2.3,63.3-36.4,63.3-36.4S1212.5,395.4,1206.4,395.3z"/>
		<path class="st0" d="M1136.1,428.3c0,0-12.3-8-8.2-15.2c2.6-1.5,80.3-36.4,80.3-36.4c5.2,0.6,5.2,11.4,5.2,11.4
			s-50,21.7-75.2,33.4c-2.4,1.3,0.7,5.1,0.6,5.3C1138,428.2,1136.1,428.3,1136.1,428.3z"/>
	</g>
</g>
<g id="Слой_7">
	<g>
		<path class="st0" d="M1086.6,266.4c-17,15.7-26.3,27.8-40.2,47.4c-6.4,9-10,19.1-14.9,16.6c-1.5,1.3-0.8,3.2-0.8,3.2
			s8.9,7.4,13.8,2.7c17.4-25.3,29.9-44.3,51.9-63.2C1097.3,272.5,1091.6,261.9,1086.6,266.4z"/>
		<path class="st0" d="M1039.5,397.6c6.2,1.8,16.3,1.1,30.4-14.3c23.8-26,32.6-43.7,44.9-65.6c3.4-3.8,8.4-0.4,10.8,2.8
			c0,0-18.7,40.3-45.5,69.3c0,0-32.7,37.7-60.6,8.4s6.1-104.4,6.1-104.4s9.3-1,10.2,4.9C1036.8,304.9,1000.8,386.6,1039.5,397.6z"/>
		<path class="st0" d="M1115.1,287.4c-14.2,21.4-33,48.3-45,65.6c-0.9,7.9,13.9,11.1,13.9,11.1s2.7-1.8,1.6-2.5
			c-2.4-1.5-3.8-4.1-2-7.9c1.5-3.2,41.2-60.2,41.2-60.2S1120.6,284.8,1115.1,287.4z"/>
		<path class="st0" d="M1066,347.6c0,0-14.5-1.9-14-10.1c1.7-2.5,56.5-67.6,56.5-67.6c4.9-1.7,9.6,8,9.6,8s-35.6,41.2-53.3,62.8
			c-1.6,2.2,2.8,4.3,2.8,4.5C1067.7,346.7,1066,347.6,1066,347.6z"/>
	</g>
</g>
<g id="Слой_6">
	<g>
		<path class="st0" d="M951.2,223.3c-8.5,21.5-11.7,36.4-15.7,60.2c-1.8,10.8-0.7,21.6-6.2,21.4c-0.8,1.8,0.7,3.3,0.7,3.3
			s11.2,2.8,13.6-3.5c4.7-30.4,7.7-52.8,19.4-79.5C963.4,224.1,953.7,217,951.2,223.3z"/>
		<path class="st0" d="M965.6,361.9c6.3-1.1,15.2-6.1,21.2-26c10.1-33.8,10.4-53.5,12-78.6c1.4-4.9,7.4-4,11-2.1
			c0,0,0.6,44.4-10.9,82.2c0,0-13.1,48.2-50.9,33.9s-39.8-96.7-39.8-96.7s7.9-5,11.3-0.1C923,279.6,926,368.7,965.6,361.9z"/>
		<path class="st0" d="M985.9,229.8c-3.5,25.4-8.8,57.8-12.1,78.6c2.6,7.5,17.3,4,17.3,4s1.7-2.8,0.4-3c-2.8-0.4-5.2-2-5.3-6.2
			c-0.1-3.5,11-72.1,11-72.1S989.8,225.1,985.9,229.8z"/>
		<path class="st0" d="M967.8,305.3c0,0-13.9,4.6-17-3c0.5-3,21.6-85.4,21.6-85.4c3.7-3.7,12.1,3,12.1,3s-14.2,52.6-20.8,79.7
			c-0.5,2.7,4.4,2.7,4.5,2.9C968.9,303.8,967.8,305.3,967.8,305.3z"/>
	</g>
</g>
<g id="Слой_5">
	<g>
		<path class="st0" d="M810.4,243.2c1.6,23.1,5.3,37.9,12,61c3,10.6,8.7,19.7,3.7,22c0,2,2,2.7,2,2.7s11.3-2.3,10.8-9.1
			c-9-29.4-16-51-17.1-80C821.8,238.7,810,236.5,810.4,243.2z"/>
		<path class="st0" d="M883.6,361.8c5.2-3.7,11-12.1,7.8-32.6c-5.5-34.8-13.8-52.7-23.3-76.1c-0.9-5.1,5-6.8,8.9-6.7
			c0,0,19.8,39.7,25.8,78.8c0,0,9.1,49.1-31.2,52.7c-40.2,3.6-77.8-69.8-77.8-69.8s5-7.9,10.2-5
			C809.5,306.1,850.9,385.2,883.6,361.8z"/>
		<path class="st0" d="M844.6,234c7.9,24.4,17.2,55.9,23.2,76.1c5.6,5.6,17.3-3.9,17.3-3.9s0.3-3.2-0.9-2.8
			c-2.7,0.9-5.6,0.4-7.4-3.3c-1.6-3.2-21.4-69.8-21.4-69.8S846,228.1,844.6,234z"/>
		<path class="st0" d="M861,309.9c0,0-10.5,10.2-16.6,4.6c-0.9-2.9-17.6-86.3-17.6-86.3c1.7-4.9,12.2-2.6,12.2-2.6
			s10,53.6,15.9,80.8c0.7,2.6,5.1,0.5,5.3,0.6C861.4,308,861,309.9,861,309.9z"/>
	</g>
</g>
<g id="Слой_4">
	<g>
		<path class="st0" d="M692.2,322.2c11.5,20.1,21.2,31.8,37.3,49.8c7.3,8.2,16.4,14,12.9,18.2c0.9,1.8,3,1.5,3,1.5s9.1-7,5.7-12.9
			c-20.8-22.6-36.5-39-50.1-64.7C700.5,313.2,688.9,316.4,692.2,322.2z"/>
		<path class="st0" d="M809.6,397.3c3.1-5.6,4.7-15.7-7.2-32.8c-20.1-29-35.3-41.5-54-58.4c-3-4.2,1.5-8.3,5.2-9.9
			c0,0,35.1,27.2,57.5,59.8c0,0,29.5,40.3-5.2,61s-100.4-29.1-100.4-29.1s1.1-9.3,7-8.9C718.7,379.3,790.3,432.6,809.6,397.3z"/>
		<path class="st0" d="M719,299.1c17.7,18.6,39.7,42.9,54,58.5c7.5,2.6,13.9-11,13.9-11s-1.1-3.1-2.1-2.2c-2,2-4.8,2.8-8.1,0.2
			c-2.8-2.2-49.5-53.6-49.5-53.6S717.7,293.2,719,299.1z"/>
		<path class="st0" d="M766.8,360.3c0,0-5,13.7-13,11.4c-2-2.2-53.3-70.1-53.3-70.1c-0.6-5.2,9.9-7.6,9.9-7.6s32.3,43.9,49.4,65.9
			c1.8,2,4.8-1.8,5.1-1.7C766.3,358.5,766.8,360.3,766.8,360.3z"/>
	</g>
</g>
<g id="Слой_3">
</g>
<g id="Слой_2">
</g>
</svg>
