<?xml version="1.0" standalone="no"?>
<!DOCTYPE svg PUBLIC "-//W3C//DTD SVG 20010904//EN"
 "http://www.w3.org/TR/2001/REC-SVG-20010904/DTD/svg10.dtd">
<svg version="1.0" xmlns="http://www.w3.org/2000/svg"
 width="194.000000pt" height="194.000000pt" viewBox="0 0 194.000000 194.000000"
 preserveAspectRatio="xMidYMid meet">
<metadata>
Created by potrace 1.15, written by Peter Selinger 2001-2017
</metadata>
<g transform="translate(0.000000,194.000000) scale(0.100000,-0.100000)"
fill="#000000" stroke="none">
<path d="M895 1706 c-255 -123 -463 -386 -520 -657 -21 -95 -20 -266 0 -343
19 -74 75 -181 123 -237 l37 -44 -49 35 c-92 66 -154 153 -192 270 -22 68 -48
96 -64 71 -17 -28 -30 -138 -30 -251 l0 -113 33 -31 c50 -46 200 -121 302
-150 190 -53 341 -57 519 -11 242 61 414 206 487 410 23 63 25 29 4 -68 -18
-84 -62 -168 -126 -240 -62 -70 -65 -92 -9 -84 49 6 172 63 258 119 l62 40 1
72 c2 196 -9 273 -58 411 -47 134 -110 232 -218 340 -106 106 -172 151 -283
193 -60 23 -81 26 -206 27 l-138 0 48 22 c73 33 177 46 255 33 139 -24 149
-25 149 -2 0 35 -114 123 -250 192 -32 16 -61 30 -62 30 -2 0 -35 -15 -73 -34z
m282 -586 c82 -21 189 -74 246 -121 36 -29 37 -33 37 -93 0 -114 -49 -217
-141 -300 -100 -90 -213 -131 -360 -130 -203 2 -373 104 -453 273 -26 56 -31
77 -31 144 0 77 0 79 35 108 75 63 242 127 370 143 65 8 222 -5 297 -24z"/>
<path d="M888 1093 c-23 -6 -23 -6 12 -41 50 -51 38 -121 -25 -148 -42 -17
-80 -5 -111 34 l-21 26 -11 -49 c-18 -85 7 -173 65 -227 116 -110 311 -78 384
64 83 162 -33 350 -215 347 -34 -1 -69 -3 -78 -6z"/>
</g>
</svg>
